<svg width="17" height="14" viewBox="0 0 17 14" fill="none" xmlns="http://www.w3.org/2000/svg">
<path d="M15.4545 9.33333H17V10.8889H15.4545V9.33333ZM15.4545 6.22222H17V7.77778H15.4545V6.22222ZM17 12.4444H15.4545V14C16.2273 14 17 13.2222 17 12.4444ZM9.27273 0H10.8182V1.55556H9.27273V0ZM15.4545 3.11111H17V4.66667H15.4545V3.11111ZM15.4545 0V1.55556H17C17 0.777778 16.2273 0 15.4545 0ZM0 3.11111H1.54545V4.66667H0V3.11111ZM12.3636 0H13.9091V1.55556H12.3636V0ZM12.3636 12.4444H13.9091V14H12.3636V12.4444ZM1.54545 0C0.772727 0 0 0.777778 0 1.55556H1.54545V0ZM6.18182 0H7.72727V1.55556H6.18182V0ZM3.09091 0H4.63636V1.55556H3.09091V0ZM0 6.22222V12.4444C0 12.857 0.162824 13.2527 0.452653 13.5444C0.742482 13.8361 1.13557 14 1.54545 14H10.8182V6.22222H0ZM1.54545 12.4444L3.47727 9.94778L4.86045 11.62L6.79227 9.11556L9.27273 12.4444H1.54545Z" fill="white"/>
</svg>